Problem writing video file to disk!

There was a problem3 ["ffmpeg version 3.4.8 Copyright (c) 2000-2020 the FFmpeg developers","  built with gcc 4.8.5 (GCC) 20150623 (Red Hat 4.8.5-39)","  configuration: --prefix=\/usr --bindir=\/usr\/bin --datadir=\/usr\/share\/ffmpeg --docdir=\/usr\/share\/doc\/ffmpeg --incdir=\/usr\/include\/ffmpeg --libdir=\/usr\/lib64 --mandir=\/usr\/share\/man --arch=x86_64 --optflags='-O2 -g -pipe -Wall -Wp,-D_FORTIFY_SOURCE=2 -fexceptions -fstack-protector-strong --param=ssp-buffer-size=4 -grecord-gcc-switches -m64 -mtune=generic' --extra-ldflags='-Wl,-z,relro ' --extra-cflags=' ' --enable-libopencore-amrnb --enable-libopencore-amrwb --enable-libvo-amrwbenc --enable-version3 --enable-bzlib --disable-crystalhd --enable-fontconfig --enable-gcrypt --enable-gnutls --enable-ladspa --enable-libass --enable-libbluray --enable-libcdio --enable-libdrm --enable-indev=jack --enable-libfreetype --enable-libfribidi --enable-libgsm --enable-libmp3lame --enable-nvenc --enable-openal --enable-opencl --enable-opengl --enable-libopenjpeg --enable-libopus --disable-encoder=libopus --enable-libpulse --enable-librsvg --enable-libsoxr --enable-libspeex --enable-libtheora --enable-libvorbis --enable-libv4l2 --enable-libvidstab --enable-libvpx --enable-libx264 --enable-libx265 --enable-libxvid --enable-libzvbi --enable-avfilter --enable-avresample --enable-libmodplug --enable-postproc --enable-pthreads --disable-static --enable-shared --enable-gpl --disable-debug --disable-stripping --shlibdir=\/usr\/lib64 --enable-libmfx --enable-runtime-cpudetect","  libavutil      55. 78.100 \/ 55. 78.100","  libavcodec     57.107.100 \/ 57.107.100","  libavformat    57. 83.100 \/ 57. 83.100","  libavdevice    57. 10.100 \/ 57. 10.100","  libavfilter     6.107.100 \/  6.107.100","  libavresample   3.  7.  0 \/  3.  7.  0","  libswscale      4.  8.100 \/  4.  8.100","  libswresample   2.  9.100 \/  2.  9.100","  libpostproc    54.  7.100 \/ 54.  7.100","[matroska,webm @ 0xd80700] Duplicate element","    Last message repeated 1 times","recordings\/record_boradcast_1_28_1_2021_184710.webm: End of file"]
Problem writing video file to disk!

There was a problem3 ["ffmpeg version 3.4.8 Copyright (c) 2000-2020 the FFmpeg developers","  built with gcc 4.8.5 (GCC) 20150623 (Red Hat 4.8.5-39)","  configuration: --prefix=\/usr --bindir=\/usr\/bin --datadir=\/usr\/share\/ffmpeg --docdir=\/usr\/share\/doc\/ffmpeg --incdir=\/usr\/include\/ffmpeg --libdir=\/usr\/lib64 --mandir=\/usr\/share\/man --arch=x86_64 --optflags='-O2 -g -pipe -Wall -Wp,-D_FORTIFY_SOURCE=2 -fexceptions -fstack-protector-strong --param=ssp-buffer-size=4 -grecord-gcc-switches -m64 -mtune=generic' --extra-ldflags='-Wl,-z,relro ' --extra-cflags=' ' --enable-libopencore-amrnb --enable-libopencore-amrwb --enable-libvo-amrwbenc --enable-version3 --enable-bzlib --disable-crystalhd --enable-fontconfig --enable-gcrypt --enable-gnutls --enable-ladspa --enable-libass --enable-libbluray --enable-libcdio --enable-libdrm --enable-indev=jack --enable-libfreetype --enable-libfribidi --enable-libgsm --enable-libmp3lame --enable-nvenc --enable-openal --enable-opencl --enable-opengl --enable-libopenjpeg --enable-libopus --disable-encoder=libopus --enable-libpulse --enable-librsvg --enable-libsoxr --enable-libspeex --enable-libtheora --enable-libvorbis --enable-libv4l2 --enable-libvidstab --enable-libvpx --enable-libx264 --enable-libx265 --enable-libxvid --enable-libzvbi --enable-avfilter --enable-avresample --enable-libmodplug --enable-postproc --enable-pthreads --disable-static --enable-shared --enable-gpl --disable-debug --disable-stripping --shlibdir=\/usr\/lib64 --enable-libmfx --enable-runtime-cpudetect","  libavutil      55. 78.100 \/ 55. 78.100","  libavcodec     57.107.100 \/ 57.107.100","  libavformat    57. 83.100 \/ 57. 83.100","  libavdevice    57. 10.100 \/ 57. 10.100","  libavfilter     6.107.100 \/  6.107.100","  libavresample   3.  7.  0 \/  3.  7.  0","  libswscale      4.  8.100 \/  4.  8.100","  libswresample   2.  9.100 \/  2.  9.100","  libpostproc    54.  7.100 \/ 54.  7.100","Input #0, matroska,webm, from 'recordings\/record_lg01ql9qq7_16_3_2021_164844.webm':","  Metadata:","    encoder         : Chrome","  Duration: N\/A, start: 0.000000, bitrate: N\/A","    Stream #0:0(eng): Video: h264 (Constrained Baseline), yuv420p(progressive), 1360x768, SAR 1:1 DAR 85:48, 30.30 fps, 30 tbr, 1k tbn, 60 tbc (default)","    Stream #0:1(eng): Audio: opus, 48000 Hz, stereo, fltp (default)","Stream mapping:","  Stream #0:0 -> #0:0 (h264 (native) -> h264 (libx264))","  Stream #0:1 -> #0:1 (opus (native) -> aac (native))","Press [q] to stop, [?] for help","Too many packets buffered for output stream 0:1.","[aac @ 0x21caaa0] Qavg: 25604.209","[aac @ 0x21caaa0] 2 frames left in the queue on closing","Conversion failed!"]
There was a problem3 ["ffmpeg version 3.4.8 Copyright (c) 2000-2020 the FFmpeg developers","  built with gcc 4.8.5 (GCC) 20150623 (Red Hat 4.8.5-39)","  configuration: --prefix=\/usr --bindir=\/usr\/bin --datadir=\/usr\/share\/ffmpeg --docdir=\/usr\/share\/doc\/ffmpeg --incdir=\/usr\/include\/ffmpeg --libdir=\/usr\/lib64 --mandir=\/usr\/share\/man --arch=x86_64 --optflags='-O2 -g -pipe -Wall -Wp,-D_FORTIFY_SOURCE=2 -fexceptions -fstack-protector-strong --param=ssp-buffer-size=4 -grecord-gcc-switches -m64 -mtune=generic' --extra-ldflags='-Wl,-z,relro ' --extra-cflags=' ' --enable-libopencore-amrnb --enable-libopencore-amrwb --enable-libvo-amrwbenc --enable-version3 --enable-bzlib --disable-crystalhd --enable-fontconfig --enable-gcrypt --enable-gnutls --enable-ladspa --enable-libass --enable-libbluray --enable-libcdio --enable-libdrm --enable-indev=jack --enable-libfreetype --enable-libfribidi --enable-libgsm --enable-libmp3lame --enable-nvenc --enable-openal --enable-opencl --enable-opengl --enable-libopenjpeg --enable-libopus --disable-encoder=libopus --enable-libpulse --enable-librsvg --enable-libsoxr --enable-libspeex --enable-libtheora --enable-libvorbis --enable-libv4l2 --enable-libvidstab --enable-libvpx --enable-libx264 --enable-libx265 --enable-libxvid --enable-libzvbi --enable-avfilter --enable-avresample --enable-libmodplug --enable-postproc --enable-pthreads --disable-static --enable-shared --enable-gpl --disable-debug --disable-stripping --shlibdir=\/usr\/lib64 --enable-libmfx --enable-runtime-cpudetect","  libavutil      55. 78.100 \/ 55. 78.100","  libavcodec     57.107.100 \/ 57.107.100","  libavformat    57. 83.100 \/ 57. 83.100","  libavdevice    57. 10.100 \/ 57. 10.100","  libavfilter     6.107.100 \/  6.107.100","  libavresample   3.  7.  0 \/  3.  7.  0","  libswscale      4.  8.100 \/  4.  8.100","  libswresample   2.  9.100 \/  2.  9.100","  libpostproc    54.  7.100 \/ 54.  7.100","Input #0, matroska,webm, from 'recordings\/record_lg01ql9qq7_16_3_2021_165218.webm':","  Metadata:","    encoder         : Chrome","  Duration: N\/A, start: 0.000000, bitrate: N\/A","    Stream #0:0(eng): Video: h264 (Constrained Baseline), yuv420p(progressive), 1360x768, SAR 1:1 DAR 85:48, 30.30 fps, 26.25 tbr, 1k tbn, 60 tbc (default)","    Stream #0:1(eng): Audio: opus, 48000 Hz, stereo, fltp (default)","Stream mapping:","  Stream #0:0 -> #0:0 (h264 (native) -> h264 (libx264))","  Stream #0:1 -> #0:1 (opus (native) -> aac (native))","Press [q] to stop, [?] for help","Too many packets buffered for output stream 0:1.","[aac @ 0x19eccc0] Qavg: 28118.521","[aac @ 0x19eccc0] 2 frames left in the queue on closing","Conversion failed!"]
